<svg width="25" height="25" viewBox="0 0 25 25" fill="none" xmlns="http://www.w3.org/2000/svg">
<path d="M8.33331 16.6667H20.8333V4.16668H18.75V11.4583L16.1458 9.89584L13.5416 11.4583V4.16668H8.33331V16.6667ZM8.33331 18.75C7.7604 18.75 7.27012 18.5462 6.86248 18.1386C6.45484 17.7309 6.25067 17.2403 6.24998 16.6667V4.16668C6.24998 3.59376 6.45415 3.10348 6.86248 2.69584C7.27081 2.2882 7.76109 2.08404 8.33331 2.08334H20.8333C21.4062 2.08334 21.8969 2.28751 22.3052 2.69584C22.7135 3.10418 22.9173 3.59445 22.9166 4.16668V16.6667C22.9166 17.2396 22.7128 17.7302 22.3052 18.1386C21.8975 18.5469 21.4069 18.7507 20.8333 18.75H8.33331ZM4.16665 22.9167C3.59373 22.9167 3.10345 22.7129 2.69581 22.3052C2.28817 21.8976 2.08401 21.407 2.08331 20.8333V6.25001H4.16665V20.8333H18.75V22.9167H4.16665Z" fill="#653FC0"/>
</svg>