<svg width="1em" height="1em" viewBox="0 0 21 21" fill="none" xmlns="http://www.w3.org/2000/svg">
<path d="M6.33334 14.6667H18.8333V2.16668H16.75V9.45834L14.1458 7.89584L11.5417 9.45834V2.16668H6.33334V14.6667ZM6.33334 16.75C5.76043 16.75 5.27015 16.5462 4.86251 16.1386C4.45487 15.7309 4.2507 15.2403 4.25001 14.6667V2.16668C4.25001 1.59376 4.45418 1.10348 4.86251 0.695844C5.27084 0.288205 5.76112 0.084038 6.33334 0.0833435H18.8333C19.4063 0.0833435 19.8969 0.28751 20.3052 0.695844C20.7136 1.10418 20.9174 1.59445 20.9167 2.16668V14.6667C20.9167 15.2396 20.7129 15.7302 20.3052 16.1386C19.8976 16.5469 19.407 16.7507 18.8333 16.75H6.33334ZM2.16668 20.9167C1.59376 20.9167 1.10348 20.7129 0.695844 20.3052C0.288205 19.8976 0.084038 19.407 0.0833435 18.8333V4.25001H2.16668V18.8333H16.75V20.9167H2.16668Z" fill="#653FC0"/>
</svg>
