<svg width="1em" height="1em" viewBox="0 0 22 28" fill="none" xmlns="http://www.w3.org/2000/svg">
<path d="M11 19C16.5228 19 21 15.0825 21 10.25C21 5.41751 16.5228 1.5 11 1.5C5.47715 1.5 1 5.41751 1 10.25C1 15.0825 5.47715 19 11 19Z" stroke="#653FC0" stroke-width="2" stroke-linecap="round" stroke-linejoin="round"/>
<path d="M11 10.25C11 8.92392 11.5268 7.65215 12.4645 6.71447C13.4021 5.77678 14.6739 5.25 16 5.25C17.3261 5.25 18.5979 5.77678 19.5355 6.71447C20.4732 7.65215 21 8.92392 21 10.25V25.25H16C7.75 25.25 1 18.5 1 10.25C1 8.92392 1.52678 7.65215 2.46447 6.71447C3.40215 5.77678 4.67392 5.25 6 5.25C7.32608 5.25 8.59785 5.77678 9.53553 6.71447C10.4732 7.65215 11 8.92392 11 10.25ZM11 10.25V11.5M6 10.25H6.0125M16 10.25H16.0125" stroke="#653FC0" stroke-width="2" stroke-linecap="round" stroke-linejoin="round"/>
<path d="M21 25.25C19.7071 25.25 18.4671 24.7364 17.5529 23.8221C16.6386 22.9079 16.125 21.6679 16.125 20.375C16.125 19.0821 16.6386 17.8421 17.5529 16.9279C18.4671 16.0136 19.7071 15.5 21 15.5M8.5 23.25V26.5M13.5 25.0625V26.5" stroke="#653FC0" stroke-width="2" stroke-linecap="round" stroke-linejoin="round"/>
</svg>
