<svg width="32" height="32" viewBox="0 0 32 32" fill="none" xmlns="http://www.w3.org/2000/svg">
<path d="M27.3562 1.20752H2.73453C1.89119 1.20752 1.20752 1.89119 1.20752 2.73453V27.3562C1.20752 28.1995 1.89119 28.8832 2.73453 28.8832H27.3562C28.1995 28.8832 28.8832 28.1995 28.8832 27.3562V2.73453C28.8832 1.89119 28.1995 1.20752 27.3562 1.20752Z" fill="#3D5A98"/>
<path d="M21.62 30.7925V19.335H25.465L26.04 14.87H21.62V12.02C21.62 10.7275 21.98 9.84498 23.8325 9.84498H26.1975V5.84498C25.0523 5.72584 23.9014 5.66909 22.75 5.67498C19.345 5.67498 17 7.74998 17 11.5775V14.87H13.155V19.335H17V30.7925H21.62Z" fill="white"/>
</svg>
