<svg width="36" height="30" viewBox="0 0 36 30" fill="none" xmlns="http://www.w3.org/2000/svg">
<path d="M30.2727 3.6531C29.1392 4.26276 27.9367 4.6629 26.7055 4.84018C27.988 3.90717 28.9727 2.4297 29.4363 0.669321C28.2172 1.54744 26.8834 2.16616 25.4925 2.49875C24.3595 1.03363 22.7455 0.117981 20.959 0.117981C17.529 0.117981 14.748 3.49348 14.748 7.65674C14.748 8.24769 14.803 8.82301 14.9088 9.37492C9.74711 9.06042 5.17072 6.05913 2.10738 1.49798C1.57288 2.61143 1.26661 3.90659 1.26661 5.28803C1.26661 7.90363 2.36316 10.211 4.02958 11.5631C3.04329 11.5256 2.07869 11.2023 1.21635 10.62C1.21603 10.6516 1.21592 10.6832 1.21599 10.7149C1.21599 14.3676 3.35684 17.4146 6.19799 18.1072C5.2834 18.4091 4.32407 18.4533 3.39327 18.2364C4.18355 21.2315 6.4773 23.411 9.19499 23.472C7.06939 25.494 4.39132 26.6993 1.48159 26.6993C0.980198 26.6993 0.485901 26.6635 0 26.5939C2.74855 28.733 6.01316 29.981 9.52054 29.981C20.9446 29.981 27.1915 18.4933 27.1915 8.53104C27.1915 8.20406 27.1855 7.87894 27.1736 7.55569C28.3894 6.4886 29.4388 5.16709 30.2727 3.6531Z" fill="#55ACEE"/>
</svg>
